# xmcd
#
# Track frame offsets: 
#        300
#        21600
#        46901
#        68799
#        102949
#        127437
#        151533
#        177848
#        199631
#        220377
#
# Disc length: 3228 seconds
#
# Revision: 6
# Processed by: cddbd v1.5.2PL0 Copyright (c) Steve Scherf et al.
# Submitted via: ExactAudioCopy v1.0b1
#
DISCID=900c980a
DTITLE=Tony Joe White - Uncovered
DYEAR=2006
DGENRE=Outlaw Country
TTITLE0=Run For Cover
TTITLE1=Not One Bad Thought  (feat. Mark Knopfler)
TTITLE2=Did Somebody Make A Fool Out Of You. (feat. Eric Clapton)
TTITLE3=Louvelda  (feat. J.J. Cale)
TTITLE4=Rebellion
TTITLE5=Shakin' The Blues  (feat. Waylon Jennings)
TTITLE6=Rainy Night In Georgia
TTITLE7=Baby Don't Look Down  (feat. Michael McDonald)
TTITLE8=Taking The Midnight Train
TTITLE9=Keeper Of The Fire
EXTD=YEAR: 2006
EXTT0=
EXTT1=
EXTT2=
EXTT3=
EXTT4=
EXTT5=
EXTT6=
EXTT7=
EXTT8=
EXTT9=
PLAYORDER=
